/* XPM */
static char *ab66c7a5279f451f8925b55ee986a5db[] = {
/* columns rows colors chars-per-pixel */
"64 64 2 1 ",
"  c black",
". c None",
/* pixels */
"................................................................",
"..........................            ..........................",
"......................                    ......................",
"....................                        ....................",
"..................         ..........         ..................",
"................       ..................       ................",
"..............       .......................      ..............",
".............      .......            .......      .............",
"............     ......                  ......     ............",
"...........     .....                       .....    ...........",
"..........    .....                          .....    ..........",
".........    ....                              ....    .........",
"........    ....                                ....    ........",
".......    ....                                  ....    .......",
".......   ....                                    ....   .......",
"......    ...                ..  ..                ....   ......",
".....    ...                 ..  ..                 ...    .....",
".....   ...                      ..                  ...   .....",
"....    ...                     ...                  ...    ....",
"....   ...                 ..........                 ...   ....",
"...    ...               ..............               ...    ...",
"...   ...               ......    ......               ...   ...",
"...   ...              ....          ....              ...   ...",
"..    ..              ....            ....              ...   ..",
"..   ...             ....              ....             ...   ..",
"..   ...            ....                ....            ...   ..",
"..   ...            ...                  ...             ..   ..",
"..   ..             ..                    ..             ...  ..",
".   ...            ...                    ...            ...   .",
".   ...            ...                    ...            ...   .",
".   ...            ...                    ...            ...   .",
".   ...            ...                    ...            ...   .",
".   ...            ...                    ...            ...   .",
".   ...            ...                    ...            ...   .",
".   ...            ...                    ...            ...   .",
".    ..            ...                    ...            ...   .",
"..   ..             ...                  ...             ..   ..",
"..   ...            ...                  ...             ..   ..",
"..   ...             ...                ...             ...   ..",
"..   ...             ....              ....             ...   ..",
"..    ...             ....            ....              ..    ..",
"...   ...              .....        .....              ...   ...",
"...   ...               ................               ...   ...",
"....   ...                ............                ...   ....",
"....   ...                  ........                  ...   ....",
"....    ...                  ..  ..                  ...    ....",
".....   ....                 ..  ..                 ....   .....",
"......   ....                ..  ..                 ...   ......",
"......    ...                ..  ..                ...    ......",
".......    ...                                    ....   .......",
"........    ...                                  ....   ........",
"........    .....                               ....    ........",
".........     ....                            .....    .........",
"..........     ....                          ....     ..........",
"...........     .....                      .....     ...........",
"............      ......                .......     ............",
"..............     .........         ........     ..............",
"...............      ......................      ...............",
".................       ................       .................",
"...................           .....          ...................",
".....................                      .....................",
"........................                ........................",
".............................      .............................",
"................................................................"
};
