/* XPM */
static char *aac57aa58fdd4a1fbf1a9f3c9ba9fbf7[] = {
/* columns rows colors chars-per-pixel */
"128 128 2 1 ",
"  c black",
". c None",
/* pixels */
"................................................................................................................................",
"................................................................................................................................",
"........................................................                ........................................................",
"..................................................                            ..................................................",
"..............................................                                    ..............................................",
"...........................................                                          ...........................................",
".........................................                                              .........................................",
"......................................                                                    ......................................",
"....................................                     ..............                     ....................................",
"..................................                  .........................                 ..................................",
".................................               ................................               .................................",
"...............................              ......................................              ...............................",
"..............................            ............................................            ..............................",
"............................            .......................  .......................            ............................",
"...........................           ................                    ................           ...........................",
".........................           ..............                            ..............           .........................",
"........................           ............                                  .............          ........................",
".......................          ...........                                        ...........          .......................",
"......................          ..........                                            ...........         ......................",
".....................         ..........                                                ..........         .....................",
"....................         ..........                                                   .........         ....................",
"...................         .........                                                      .........         ...................",
"..................         ........                                                          ........         ..................",
".................         ........                                                            .........        .................",
"................         ........                                                              .........        ................",
"................        ........                                                                 ........       ................",
"...............        .......                                                                    .......        ...............",
"..............        .......                                                                      .......        ..............",
".............        .......                                                                        .......        .............",
".............       .......                               ....    ....                               .......       .............",
"............        .......                              .....   .....                                .......       ............",
"...........        .......                               .....    ....                                 ......        ...........",
"...........       .......                                .....    ....                                 .......       ...........",
"..........       .......                                  ....    ....                                  .......       ..........",
"..........       ......                                           ....                                   ......       ..........",
".........       .......                                           ....                                    ......       .........",
".........       ......                                            ....                                    .......      .........",
"........       ......                                        .........                                     ......       ........",
"........       ......                                   ................                                    ......      ........",
".......       ......                                  ....................                                  ......       .......",
".......       ......                               ..........................                                ......      .......",
".......      ......                               ............................                               ......      .......",
"......       ......                             ................................                              ......      ......",
"......      ......                             ...........            ...........                             ......      ......",
".....       ......                            ..........                ..........                             .....       .....",
".....       .....                            .........                    .........                            ......      .....",
".....      ......                           ........                        ........                           ......      .....",
".....      ......                          ........                          ........                           .....      .....",
"....       .....                          ........                            ........                          ......      ....",
"....      ......                          .......                              .......                          ......      ....",
"....      ......                         .......                                .......                          .....      ....",
"....      .....                          ......                                  ......                          .....      ....",
"...       .....                         ......                                    ......                         ......      ...",
"...       .....                         ......                                    ......                         ......      ...",
"...      ......                        ......                                      ......                        ......      ...",
"...      ......                        ......                                      ......                         .....      ...",
"...      .....                         .....                                        .....                         .....      ...",
"...      .....                        ......                                        ......                        .....       ..",
"...      .....                        ......                                        ......                        .....       ..",
"...      .....                        .....                                          .....                        ......      ..",
"...      .....                        .....                                          .....                        ......      ..",
"...      .....                        .....                                          .....                        ......      ..",
"...      .....                        .....                                          .....                        ......      ..",
"...      .....                        .....                                          .....                        ......      ..",
"...      .....                        .....                                          .....                        ......      ..",
"...      .....                        .....                                          .....                        ......      ..",
"...      .....                        .....                                          .....                        ......      ..",
"...      .....                        .....                                          .....                        ......      ..",
"...      .....                        ......                                        ......                        ......      ..",
"...      .....                        ......                                        ......                        .....       ..",
"...      .....                         .....                                        .....                         .....      ...",
"...      ......                        ......                                      ......                         .....      ...",
"...      ......                        ......                                      ......                         .....      ...",
"...      ......                         ......                                    ......                         ......      ...",
"...       .....                         ......                                    ......                         ......      ...",
"....      .....                         .......                                  .......                         .....      ....",
"....      ......                         .......                                .......                          .....      ....",
"....      ......                          ......                                ......                          ......      ....",
"....       .....                          .......                              .......                          ......      ....",
".....      ......                          .......                            .......                           .....      .....",
".....      ......                           ........                        ........                           ......      .....",
".....       .....                            ........                      ........                            ......      .....",
".....       ......                            .........                  .........                             .....       .....",
"......      ......                             ..........              ..........                             ......      ......",
"......       ......                             ..............    ..............                              ......      ......",
".......      ......                              ..............................                              ......      .......",
".......      ......                                ..........................                                ......      .......",
".......       ......                                 ......................                                 ......       .......",
"........      .......                                  ..................                                   ......      ........",
"........       ......                                    .............                                     ......       ........",
".........      .......                                    ....    ....                                     ......      .........",
".........       ......                                    ....    ....                                    ......       .........",
"..........       ......                                   ....    ....                                   .......      ..........",
"..........       .......                                  ....    ....                                  .......       ..........",
"...........       .......                                 ....    ....                                  ......       ...........",
"...........        ......                                 ....    ....                                 .......       ...........",
"............       .......                               .....   .....                                .......       ............",
".............       .......                               ....    ....                               .......       .............",
".............        .......                                                                        .......        .............",
"..............        .......                                                                      ........       ..............",
"...............        .......                                                                    ........       ...............",
"................       ........                                                                  ........       ................",
"................        ........                                                                ........        ................",
".................        .........                                                             ........        .................",
"..................        .........                                                          .........        ..................",
"...................         ........                                                        .........        ...................",
"....................         .........                                                    ..........        ....................",
".....................         ..........                                                 .........         .....................",
"......................         ...........                                             ..........         ......................",
".......................          ...........                                         ...........         .......................",
"........................          ............                                    ............          ........................",
".........................           .............                              .............           .........................",
"...........................           ...............                       ...............          ...........................",
"............................            ...................           ...................           ............................",
"..............................            .............................................           ..............................",
"...............................             ........................................             ...............................",
".................................              ..................................              .................................",
"..................................                ............................                ..................................",
"....................................                   ..................                   ....................................",
"......................................                                                    ......................................",
".........................................                                              .........................................",
"...........................................                                          ...........................................",
"..............................................                                    ..............................................",
"..................................................                            ..................................................",
"........................................................                ........................................................",
"................................................................................................................................",
"................................................................................................................................",
"................................................................................................................................"
};
