/* XPM */
static char *d5b684bcf2124e3fb9d752f0668f3c32[] = {
/* columns rows colors chars-per-pixel */
"16 16 2 1 ",
"  c black",
". c None",
/* pixels */
"......    ......",
"....  .  .. ....",
"..  .      .  ..",
".. .        . ..",
". .    ..    . .",
". .   .  .    ..",
" .   .    .     ",
"     .    ..   .",
"     .    ..   .",
" .   .    .     ",
". .   ....    ..",
". .    ..    . .",
".. .        . ..",
"... .      .  ..",
"....      . ....",
"...... ........."
};
