/* XPM */
static char *_7378bc63c174e25c30ad6ccb016ccae[] = {
/* columns rows colors chars-per-pixel */
"32 32 2 1 ",
"  c black",
". c None",
/* pixels */
"................................",
"............        ............",
"..........      .      .........",
"........   ...........   .......",
".......  ....       ....  ......",
".....   ..            ...  .....",
".....  ..               ..  ....",
"....  ..                 ..  ...",
"...  ..        . .        ..  ..",
"... ..          ..         .  ..",
"..  .        ......        ..  .",
".. ..       ...   ...       .  .",
".  ..      ..       ..      .. .",
".  .      ..         .       . .",
".  .      ..         ..      . .",
".  .      .          ..      . .",
". ..      .           .      . .",
".  .      .          ..      . .",
".  .      ..         ..      . .",
".  .       .         .      .. .",
".  ..      ..       ..      .. .",
".. ..       ...  ....       .  .",
"..  ..        .....        ..  .",
"... ..         . .         .  ..",
"...  ..        . .        .. ...",
"....  ..                 ..  ...",
".....  ..               ..  ....",
"......  ...           ...  .....",
".......   ...      ....   ......",
"........    .........   ........",
"..........             .........",
"................................"
};
