<?xml version="1.0" encoding="UTF-8" standalone="no"?>
<!-- Created with Inkscape (http://www.inkscape.org/) -->

<svg
   xmlns:dc="http://purl.org/dc/elements/1.1/"
   xmlns:cc="http://creativecommons.org/ns#"
   xmlns:rdf="http://www.w3.org/1999/02/22-rdf-syntax-ns#"
   xmlns:svg="http://www.w3.org/2000/svg"
   xmlns="http://www.w3.org/2000/svg"
   xmlns:sodipodi="http://sodipodi.sourceforge.net/DTD/sodipodi-0.dtd"
   xmlns:inkscape="http://www.inkscape.org/namespaces/inkscape"
   width="315.18317mm"
   height="315.19968mm"
   viewBox="0 0 315.18317 315.19968"
   version="1.1"
   id="svg8"
   inkscape:version="0.92.1 r15371"
   sodipodi:docname="bitcoin.svg">
  <defs
     id="defs2" />
  <sodipodi:namedview
     id="base"
     pagecolor="#ffffff"
     bordercolor="#666666"
     borderopacity="1.0"
     inkscape:pageopacity="0.0"
     inkscape:pageshadow="2"
     inkscape:zoom="0.49497475"
     inkscape:cx="1446.0531"
     inkscape:cy="717.67353"
     inkscape:document-units="mm"
     inkscape:current-layer="layer1"
     showgrid="false"
     fit-margin-top="0"
     fit-margin-left="0"
     fit-margin-right="0"
     fit-margin-bottom="0"
     inkscape:window-width="1920"
     inkscape:window-height="1057"
     inkscape:window-x="-8"
     inkscape:window-y="-8"
     inkscape:window-maximized="1" />
  <metadata
     id="metadata5">
    <rdf:RDF>
      <cc:Work
         rdf:about="">
        <dc:format>image/svg+xml</dc:format>
        <dc:type
           rdf:resource="http://purl.org/dc/dcmitype/StillImage" />
        <dc:title></dc:title>
      </cc:Work>
    </rdf:RDF>
  </metadata>
  <g
     inkscape:label="Layer 1"
     inkscape:groupmode="layer"
     id="layer1"
     transform="translate(372.93879,-6.2865042)">
    <path
       style="fill:#cb9715;stroke-width:0.35277775"
       d="m -226.73531,321.29458 c -69.05533,-5.47509 -125.53509,-53.33107 -141.97905,-120.30053 -3.08571,-12.56683 -4.22667,-22.57125 -4.22443,-37.04167 0.002,-11.2193 0.32508,-15.71771 1.77502,-24.69444 6.99431,-43.302211 31.31636,-81.547929 67.24535,-105.74135 38.66246,-26.0340515 85.38333,-33.78231046 130.1992,-21.592433 38.98172,10.602993 72.46152,36.006445 93.48966,70.937112 2.51755,4.182011 6.90502,12.60223 8.89035,17.06195 8.89235,19.975171 13.58651,42.035061 13.58358,63.835101 -0.006,47.83829 -21.68179,93.26233 -58.63849,122.88596 -24.04643,19.27506 -52.14308,30.83756 -83.3537,34.30221 -4.52907,0.50277 -22.16725,0.73027 -26.98749,0.34809 z m 26.98749,-15.32155 c 23.20308,-2.70325 44.74594,-10.56417 63.67639,-23.2353 29.03384,-19.43386 50.11497,-49.12215 58.67101,-82.62563 1.54945,-6.0673 2.46114,-10.79775 3.44242,-17.86165 0.95031,-6.84092 1.32476,-22.21112 0.71282,-29.25953 -1.64131,-18.90507 -6.36756,-35.65694 -14.82332,-52.54026 -18.3418,-36.622474 -51.60124,-63.502897 -91.21821,-73.722957 -6.16203,-1.58963 -12.87266,-2.882981 -19.57916,-3.773526 -5.95204,-0.790363 -25.11236,-0.904194 -31.22083,-0.185483 -34.21919,4.026157 -64.40817,18.856973 -87.79229,43.129352 -23.73905,24.640803 -37.50639,56.626474 -39.4447,91.641954 -1.46824,26.52375 5.14487,54.09132 18.59906,77.53245 23.59126,41.10289 65.61367,67.60145 113.22404,71.397 5.40491,0.43089 20.24945,0.14474 25.75277,-0.49642 z m -23.63611,-13.24378 c -26.69597,-1.9575 -51.62047,-11.64443 -72.31944,-28.107 -4.96877,-3.95183 -15.38127,-14.35944 -19.30933,-19.30026 -16.62257,-20.90833 -25.85209,-44.06322 -28.33193,-71.07876 -0.36704,-3.99854 -0.26239,-15.95486 0.18425,-21.05057 1.83001,-20.87875 9.26504,-42.15983 20.85016,-59.678821 20.78762,-31.434958 54.60565,-52.20624 92.39991,-56.752695 5.55227,-0.667908 19.00212,-0.940203 24.34166,-0.492796 42.29604,3.544023 78.9995,26.209059 100.53881,62.084501 9.20062,15.324351 15.13807,32.446311 17.48784,50.430091 0.68084,5.21073 0.97929,21.41589 0.48728,26.45833 -3.04467,31.20378 -15.75517,58.52883 -37.1759,79.92072 -21.46251,21.43362 -49.02311,34.37165 -79.57414,37.35524 -3.7294,0.36421 -15.73121,0.49417 -19.57917,0.21202 z m 3.01195,-49.22548 c 1.30393,-4.8507 2.54835,-9.47002 2.76539,-10.26516 l 0.39461,-1.44572 5.2043,-0.2185 c 16.35156,-0.68654 32.37231,-7.80147 44.20066,-19.62982 5.57661,-5.5766 9.30984,-10.85145 12.86851,-18.18247 9.34412,-19.24932 9.06793,-41.72939 -0.74243,-60.4279 -5.88376,-11.21445 -14.96136,-20.90884 -25.15098,-26.85989 -1.42378,-0.83153 -2.41729,-1.6357 -2.32785,-1.88421 0.63339,-1.75988 5.46495,-20.528713 5.36319,-20.83401 -0.0709,-0.212845 -2.57838,-1.046364 -5.57206,-1.852263 -4.83956,-1.302809 -5.473,-1.402059 -5.71299,-0.89516 -0.14846,0.31356 -1.36736,4.672968 -2.70867,9.687572 -1.34131,5.01461 -2.51264,9.19137 -2.60296,9.28169 -0.0903,0.0903 -1.64955,-0.23357 -3.46495,-0.71977 -6.86067,-1.83741 -9.48942,-2.15609 -17.7646,-2.1536 -8.1921,0.002 -11.70607,0.45298 -18.52084,2.37453 -15.1469,4.270941 -29.16025,14.631681 -37.81817,27.960801 -7.35392,11.32157 -10.88588,23.20332 -10.91378,36.71469 -0.0483,23.38791 11.38138,44.31024 31.18126,57.07811 1.69774,1.09478 3.08681,2.09931 3.08681,2.23227 0,0.13297 -1.19063,4.64678 -2.64584,10.0307 -1.45521,5.38391 -2.64583,10.01061 -2.64583,10.28155 0,0.33785 1.73464,0.95575 5.52164,1.96688 3.03691,0.81084 5.60125,1.39466 5.69854,1.29737 0.0973,-0.0973 1.27053,-4.26561 2.60719,-9.26293 1.33666,-4.99732 2.56527,-9.22102 2.73025,-9.38599 0.16498,-0.16498 0.59482,-0.15175 0.9552,0.0294 0.36038,0.18115 2.08398,0.69836 3.83023,1.14934 1.74625,0.45099 3.20899,0.84094 3.25053,0.86657 0.0415,0.0256 -1.02824,4.16657 -2.37729,9.20209 -1.34906,5.03552 -2.45461,9.32943 -2.45678,9.54203 -0.004,0.38034 9.93065,3.289 10.89996,3.19132 0.34093,-0.0344 1.2414,-2.81939 2.86775,-8.86953 z m -0.36611,-25.80929 c -5.9724,-0.92649 -8.19153,-1.41643 -11.68128,-2.57899 -18.47669,-6.15527 -31.86352,-21.52069 -35.8265,-41.12174 -0.96799,-4.78772 -0.88353,-15.30517 0.16167,-20.13224 2.3759,-10.97264 6.92206,-19.36641 14.69933,-27.14001 8.26328,-8.25939 17.09874,-12.92111 28.76622,-15.17751 4.94399,-0.95612 13.67215,-0.88524 18.99176,0.15424 22.25126,4.34802 39.09529,21.65862 42.95054,44.14027 0.77338,4.50989 0.77661,12.90835 0.007,17.19289 -1.18375,6.58681 -3.01293,11.7529 -6.19268,17.48973 -2.53042,4.56533 -4.88268,7.61318 -9.17275,11.88522 -8.28548,8.25066 -18.91926,13.46218 -30.59059,14.99215 -3.68063,0.48249 -9.92625,0.63512 -12.11234,0.29599 z m 20.83175,-129.677511 c 0.21882,-0.82462 0.85994,-3.208511 1.42471,-5.297548 0.56478,-2.089034 1.02671,-3.994034 1.02652,-4.233333 -3.5e-4,-0.495106 -10.97281,-3.541289 -11.34416,-3.149385 -0.28229,0.29791 -3.18101,11.060535 -3.02183,11.219712 0.19473,0.194733 10.27833,2.904804 10.91316,2.933024 0.42145,0.0187 0.72389,-0.42589 1.0016,-1.47247 z"
       id="path21"
       inkscape:connector-curvature="0" />
  </g>
</svg>
